<svg width="86" height="14" viewBox="0 0 86 14" fill="none" xmlns="http://www.w3.org/2000/svg">
<path d="M10.118 13H8.265L6.752 8.971C6.59333 8.54033 6.361 8.24567 6.055 8.087C5.749 7.917 5.32967 7.832 4.797 7.832H2.145V13H0.411V0.896H5.392C6.718 0.896 7.73233 1.19067 8.435 1.78C9.149 2.36933 9.506 3.21367 9.506 4.313C9.506 5.10633 9.29633 5.78067 8.877 6.336C8.45767 6.89133 7.86267 7.28233 7.092 7.509C7.79467 7.63367 8.30467 8.13233 8.622 9.005L10.118 13ZM5.188 6.421C6.072 6.421 6.72933 6.251 7.16 5.911C7.59067 5.55967 7.806 5.03833 7.806 4.347C7.806 3.65567 7.59067 3.14567 7.16 2.817C6.74067 2.477 6.08333 2.307 5.188 2.307H2.145V6.421H5.188ZM19.4215 8.75H13.3015C13.3582 10.756 14.2705 11.759 16.0385 11.759C17.0245 11.759 17.9255 11.436 18.7415 10.79L19.2685 12.014C18.8832 12.354 18.3902 12.626 17.7895 12.83C17.2002 13.0227 16.6052 13.119 16.0045 13.119C14.6332 13.119 13.5565 12.728 12.7745 11.946C11.9925 11.1527 11.6015 10.0703 11.6015 8.699C11.6015 7.82633 11.7715 7.05 12.1115 6.37C12.4628 5.69 12.9502 5.163 13.5735 4.789C14.1968 4.415 14.9052 4.228 15.6985 4.228C16.8545 4.228 17.7612 4.602 18.4185 5.35C19.0872 6.098 19.4215 7.135 19.4215 8.461V8.75ZM15.7325 5.503C15.0865 5.503 14.5595 5.69567 14.1515 6.081C13.7435 6.46633 13.4828 7.016 13.3695 7.73H17.9085C17.8405 7.00467 17.6195 6.455 17.2455 6.081C16.8715 5.69567 16.3672 5.503 15.7325 5.503ZM29.2288 4.432V13H27.5288V11.538C27.2795 12.048 26.9055 12.439 26.4068 12.711C25.9195 12.983 25.3471 13.119 24.6898 13.119C23.9305 13.119 23.2618 12.9377 22.6838 12.575C22.1171 12.2123 21.6751 11.7023 21.3578 11.045C21.0405 10.3763 20.8818 9.6 20.8818 8.716C20.8818 7.832 21.0405 7.05 21.3578 6.37C21.6865 5.69 22.1398 5.163 22.7178 4.789C23.2958 4.415 23.9531 4.228 24.6898 4.228C25.3471 4.228 25.9195 4.36967 26.4068 4.653C26.8941 4.925 27.2681 5.316 27.5288 5.826V4.432H29.2288ZM25.0978 11.759C25.8685 11.759 26.4635 11.4927 26.8828 10.96C27.3135 10.416 27.5288 9.65667 27.5288 8.682C27.5288 7.696 27.3135 6.93667 26.8828 6.404C26.4635 5.87133 25.8628 5.605 25.0808 5.605C24.3101 5.605 23.7038 5.88267 23.2618 6.438C22.8311 6.982 22.6158 7.74133 22.6158 8.716C22.6158 9.67933 22.8311 10.4273 23.2618 10.96C23.7038 11.4927 24.3158 11.759 25.0978 11.759ZM39.5882 0.487999V13H37.8882V11.538C37.6388 12.048 37.2648 12.439 36.7662 12.711C36.2788 12.983 35.7065 13.119 35.0492 13.119C34.3125 13.119 33.6552 12.932 33.0772 12.558C32.4992 12.184 32.0458 11.6627 31.7172 10.994C31.3998 10.314 31.2412 9.532 31.2412 8.648C31.2412 7.764 31.3998 6.98767 31.7172 6.319C32.0345 5.65033 32.4765 5.13467 33.0432 4.772C33.6212 4.40933 34.2898 4.228 35.0492 4.228C35.6952 4.228 36.2618 4.364 36.7492 4.636C37.2478 4.908 37.6218 5.29333 37.8712 5.792V0.487999H39.5882ZM35.4402 11.759C36.2222 11.759 36.8228 11.4927 37.2422 10.96C37.6728 10.416 37.8882 9.65667 37.8882 8.682C37.8882 7.70733 37.6728 6.95367 37.2422 6.421C36.8228 5.877 36.2278 5.605 35.4572 5.605C34.6752 5.605 34.0632 5.87133 33.6212 6.404C33.1905 6.93667 32.9752 7.68467 32.9752 8.648C32.9752 9.62267 33.1905 10.3877 33.6212 10.943C34.0632 11.487 34.6695 11.759 35.4402 11.759ZM56.4178 4.228C58.3218 4.228 59.2738 5.37267 59.2738 7.662V13H57.5568V7.747C57.5568 7.01033 57.4264 6.472 57.1658 6.132C56.9164 5.792 56.5084 5.622 55.9418 5.622C55.2844 5.622 54.7631 5.84867 54.3778 6.302C54.0038 6.75533 53.8168 7.373 53.8168 8.155V13H52.0998V7.747C52.0998 7.01033 51.9694 6.472 51.7088 6.132C51.4594 5.792 51.0514 5.622 50.4848 5.622C49.8274 5.622 49.3061 5.84867 48.9208 6.302C48.5354 6.75533 48.3428 7.373 48.3428 8.155V13H46.6428V6.846C46.6428 5.95067 46.5974 5.146 46.5068 4.432H48.1048L48.2578 5.86C48.5071 5.33867 48.8641 4.93633 49.3288 4.653C49.7934 4.36967 50.3374 4.228 50.9608 4.228C52.2868 4.228 53.1538 4.77767 53.5618 5.877C53.8224 5.367 54.2021 4.96467 54.7008 4.67C55.2108 4.37533 55.7831 4.228 56.4178 4.228ZM65.4226 13.119C64.5839 13.119 63.8473 12.9377 63.2126 12.575C62.5779 12.2123 62.0849 11.6967 61.7336 11.028C61.3936 10.3593 61.2236 9.57733 61.2236 8.682C61.2236 7.78667 61.3936 7.00467 61.7336 6.336C62.0849 5.656 62.5779 5.13467 63.2126 4.772C63.8473 4.40933 64.5839 4.228 65.4226 4.228C66.2499 4.228 66.9809 4.40933 67.6156 4.772C68.2503 5.13467 68.7376 5.656 69.0776 6.336C69.4289 7.00467 69.6046 7.78667 69.6046 8.682C69.6046 9.57733 69.4289 10.3593 69.0776 11.028C68.7376 11.6967 68.2503 12.2123 67.6156 12.575C66.9809 12.9377 66.2499 13.119 65.4226 13.119ZM65.4056 11.759C66.1989 11.759 66.8053 11.4983 67.2246 10.977C67.6439 10.4557 67.8536 9.69067 67.8536 8.682C67.8536 7.696 67.6383 6.93667 67.2076 6.404C66.7883 5.87133 66.1933 5.605 65.4226 5.605C64.6406 5.605 64.0343 5.87133 63.6036 6.404C63.1729 6.93667 62.9576 7.696 62.9576 8.682C62.9576 9.69067 63.1673 10.4557 63.5866 10.977C64.0173 11.4983 64.6236 11.759 65.4056 11.759ZM75.8785 4.228C76.1392 4.228 76.4112 4.26767 76.6945 4.347L76.6605 5.911C76.3545 5.79767 76.0202 5.741 75.6575 5.741C74.8755 5.741 74.2862 5.979 73.8895 6.455C73.5042 6.91967 73.3115 7.509 73.3115 8.223V13H71.6115V6.846C71.6115 5.95067 71.5662 5.146 71.4755 4.432H73.0735L73.2265 5.979C73.4532 5.41233 73.8045 4.98167 74.2805 4.687C74.7565 4.381 75.2892 4.228 75.8785 4.228ZM85.1471 8.75H79.0271C79.0838 10.756 79.9961 11.759 81.7641 11.759C82.7501 11.759 83.6511 11.436 84.4671 10.79L84.9941 12.014C84.6088 12.354 84.1158 12.626 83.5151 12.83C82.9258 13.0227 82.3308 13.119 81.7301 13.119C80.3588 13.119 79.2821 12.728 78.5001 11.946C77.7181 11.1527 77.3271 10.0703 77.3271 8.699C77.3271 7.82633 77.4971 7.05 77.8371 6.37C78.1884 5.69 78.6758 5.163 79.2991 4.789C79.9224 4.415 80.6308 4.228 81.4241 4.228C82.5801 4.228 83.4868 4.602 84.1441 5.35C84.8128 6.098 85.1471 7.135 85.1471 8.461V8.75ZM81.4581 5.503C80.8121 5.503 80.2851 5.69567 79.8771 6.081C79.4691 6.46633 79.2084 7.016 79.0951 7.73H83.6341C83.5661 7.00467 83.3451 6.455 82.9711 6.081C82.5971 5.69567 82.0928 5.503 81.4581 5.503Z" fill="#4089ED"/>
</svg>
